# xmcd
#
# Track frame offsets:
#	150
#	12883
#	33018
#	48301
#	64480
#	101008
#	122493
#	148297
#	178548
#
# Disc length: 2452 seconds
# Revision: 0
# Processed by: cddbd v1.5.2PL0 Copyright (c) Steve Scherf et al.
# Submitted via: dBpowerAMP V12.0
#
DISCID=77099209
DTITLE=Marco Goldsmith Band - Marco Goldsmith Band
DYEAR=2012
DGENRE=Blues
TTITLE0=Today I Pray
TTITLE1=Dirty Ways
TTITLE2=Oprah
TTITLE3=You Want Me Back
TTITLE4=Crazy Man
TTITLE5=Across The Line
TTITLE6=Hoochie Coochie Man
TTITLE7=I Feel So Bad
TTITLE8=MGBoogaloo
EXTD=
EXTT0=
EXTT1=
EXTT2=
EXTT3=
EXTT4=
EXTT5=
EXTT6=
EXTT7=
EXTT8=
PLAYORDER=
